<svg xmlns="http://www.w3.org/2000/svg" viewBox="0 0 800 500">
  <defs>
    <linearGradient id="bg" x1="0" y1="0" x2="1" y2="1">
      <stop offset="0" stop-color="#101d12"/>
      <stop offset="1" stop-color="#0a0d09"/>
    </linearGradient>
  </defs>
  <rect width="800" height="500" fill="url(#bg)"/>
  <path d="M100 0V500M200 0V500M300 0V500M400 0V500M500 0V500M600 0V500M700 0V500M0 100H800M0 200H800M0 300H800M0 400H800" stroke="#00ff41" stroke-opacity="0.06"/>
  <rect x="230" y="180" width="280" height="180" rx="16" fill="rgba(0,255,65,0.04)" stroke="#00ff41" stroke-width="5"/>
  <path d="M320 180 V150 C320 136 330 130 344 130 H396 C410 130 420 136 420 150 V180" fill="none" stroke="#00ff41" stroke-width="5"/>
  <line x1="230" y1="255" x2="510" y2="255" stroke="#00ff41" stroke-width="4" stroke-opacity="0.6"/>
  <circle cx="545" cy="290" r="70" fill="rgba(187,0,255,0.08)" stroke="#bb00ff" stroke-width="6"/>
  <line x1="596" y1="341" x2="650" y2="395" stroke="#bb00ff" stroke-width="10" stroke-linecap="round"/>
  <path d="M515 290 L537 312 L580 268" fill="none" stroke="#9fffa6" stroke-width="6" stroke-linecap="round" stroke-linejoin="round"/>
  <text x="60" y="452" font-family="monospace" font-size="26" letter-spacing="6" fill="#9fffa6">JOBSEEK AGENT</text>
  <rect x="60" y="466" width="120" height="4" fill="#bb00ff" fill-opacity="0.8"/>
</svg>
